<svg xmlns="http://www.w3.org/2000/svg" viewBox="0 0 640 640" fill="none">
  <defs>
    <linearGradient id="bg" x1="0" y1="0" x2="1" y2="1">
      <stop stop-color="#e8f5e9"/>
      <stop offset="1" stop-color="#a8d5b5"/>
    </linearGradient>
  </defs>
  <rect width="640" height="640" fill="url(#bg)"/>
  <ellipse cx="320" cy="520" rx="180" ry="28" fill="#1b4332" opacity="0.12"/>
  <rect x="200" y="180" width="100" height="280" rx="20" fill="#f4f1ea" stroke="#2d6a4f" stroke-width="8"/>
  <rect x="270" y="160" width="100" height="300" rx="20" fill="#fff8f0" stroke="#2d6a4f" stroke-width="8"/>
  <rect x="340" y="200" width="100" height="260" rx="20" fill="#efe6d8" stroke="#2d6a4f" stroke-width="8"/>
  <path d="M220 240c20 20 40 20 60 0M290 220c20 24 44 24 64 0M360 250c18 18 40 18 58 0" stroke="#52b788" stroke-width="10" stroke-linecap="round"/>
  <circle cx="500" cy="140" r="36" fill="#95d5b2" opacity="0.7"/>
  <path d="M120 120c40 10 60 40 50 70" stroke="#40916c" stroke-width="8" stroke-linecap="round"/>
</svg>
